<svg width="434" height="159" viewBox="0 0 434 159" fill="none" xmlns="http://www.w3.org/2000/svg">
<path d="M0 79.0146C0 122.652 35.376 158.027 79.0107 158.027C122.651 158.027 158.025 122.652 158.025 79.0146C158.025 35.376 122.651 0 79.0107 0C35.376 0 0 35.376 0 79.0146Z" fill="url(#paint0_radial_313_77)"/>
<path d="M298.539 51.2534H284.744C282.543 51.2534 281.018 50.8041 280.17 49.9054C279.319 49.0054 278.896 47.3068 278.896 44.8068V5.36943C278.896 4.97077 278.746 4.6201 278.447 4.32143C278.147 4.0201 277.795 3.87077 277.398 3.87077H269.976C269.571 3.87077 269.223 4.0201 268.924 4.32143C268.623 4.6201 268.475 4.97077 268.475 5.36943V44.8068C268.475 48.0054 268.924 50.6054 269.823 52.6028C270.727 54.6028 271.947 56.1654 273.496 57.2881C275.047 58.4148 276.871 59.1788 278.97 59.5761C281.07 59.9774 283.346 60.1761 285.792 60.1761C286.794 60.1761 287.918 60.1494 289.166 60.1028C290.414 60.0508 291.64 59.9774 292.842 59.8774C294.04 59.7761 295.152 59.6641 296.179 59.5388C297.202 59.4148 297.988 59.2788 298.539 59.1281C299.088 59.0268 299.475 58.8774 299.7 58.6774C299.926 58.4788 300.038 58.1028 300.038 57.5521V52.7548C300.038 52.3548 299.89 52.0054 299.59 51.7041C299.29 51.4028 298.939 51.2534 298.539 51.2534ZM342.532 4.84543C342.532 4.24543 342.059 3.94677 341.108 3.94677H332.563C332.163 3.94677 331.823 3.98277 331.551 4.05743C331.276 4.1321 331.036 4.29476 330.838 4.5441L312.47 29.2108V5.36943C312.47 4.97077 312.319 4.6321 312.019 4.3561C311.719 4.08277 311.371 3.94677 310.972 3.94677H303.548C303.147 3.94677 302.799 4.08277 302.499 4.3561C302.196 4.6321 302.048 4.97077 302.048 5.36943V58.0774C302.048 58.4788 302.196 58.8268 302.499 59.1281C302.799 59.4281 303.147 59.5761 303.548 59.5761H310.972C311.371 59.5761 311.719 59.4281 312.019 59.1281C312.319 58.8268 312.47 58.4788 312.47 58.0774V33.1854L329.639 58.7508C329.987 59.3014 330.562 59.5761 331.364 59.5761H341.408C342.159 59.5761 342.532 59.3508 342.532 58.9028C342.532 58.7041 342.41 58.4028 342.159 58.0028L322.815 30.8614L342.008 6.0441C342.356 5.59476 342.532 5.1961 342.532 4.84543ZM360.41 35.5081L365.811 13.2441C365.911 12.7908 366.034 12.4814 366.184 12.3054C366.334 12.1321 366.611 12.0441 367.008 12.0441C367.408 12.0441 367.687 12.1321 367.832 12.3054C367.984 12.4814 368.107 12.7908 368.21 13.2441L373.607 35.5081H360.41ZM389.724 57.9281L377.431 10.9188C376.982 9.16943 376.331 7.79343 375.48 6.79476C374.631 5.79476 373.719 5.03343 372.744 4.50543C371.77 3.98276 370.771 3.64676 369.747 3.49743C368.723 3.34543 367.808 3.26943 367.008 3.26943C366.21 3.26943 365.296 3.34543 364.271 3.49743C363.248 3.64676 362.25 3.98276 361.272 4.50543C360.298 5.03343 359.388 5.79476 358.536 6.79476C357.686 7.79343 357.038 9.16943 356.588 10.9188L344.292 57.9281C344.292 58.0268 344.28 58.1028 344.256 58.1521C344.228 58.2014 344.219 58.2534 344.219 58.3014C344.219 58.7041 344.343 59.0134 344.594 59.2388C344.843 59.4614 345.164 59.5761 345.567 59.5761H353.515C353.864 59.5761 354.163 59.4521 354.415 59.2028C354.663 58.9534 354.838 58.6508 354.938 58.3014L358.387 44.0574H375.63L379.08 58.3014C379.18 58.6508 379.352 58.9534 379.603 59.2028C379.855 59.4521 380.154 59.5761 380.506 59.5761H388.454C388.851 59.5761 389.175 59.4614 389.424 59.2388C389.674 59.0134 389.802 58.7041 389.802 58.3014C389.802 58.2534 389.786 58.2014 389.763 58.1521C389.736 58.1028 389.724 58.0268 389.724 57.9281ZM239.194 35.5081L244.591 13.2441C244.691 12.7908 244.816 12.4814 244.964 12.3054C245.118 12.1321 245.391 12.0441 245.791 12.0441C246.19 12.0441 246.467 12.1321 246.616 12.3054C246.766 12.4814 246.888 12.7908 246.99 13.2441L252.386 35.5081H239.194ZM268.51 57.9281L256.212 10.9188C255.762 9.16943 255.111 7.79343 254.263 6.79476C253.412 5.79476 252.503 5.03343 251.528 4.50543C250.554 3.98276 249.551 3.64676 248.527 3.49743C247.503 3.34543 246.59 3.26943 245.791 3.26943C244.991 3.26943 244.078 3.34543 243.054 3.49743C242.03 3.64676 241.031 3.98276 240.055 4.50543C239.082 5.03343 238.168 5.79476 237.32 6.79476C236.468 7.79343 235.82 9.16943 235.371 10.9188L223.075 57.9281C223.075 58.0268 223.06 58.1028 223.038 58.1521C223.011 58.2014 222.998 58.2534 222.998 58.3014C222.998 58.7041 223.124 59.0134 223.376 59.2388C223.624 59.4614 223.948 59.5761 224.348 59.5761H232.295C232.643 59.5761 232.946 59.4521 233.195 59.2028C233.444 58.9534 233.618 58.6508 233.72 58.3014L237.168 44.0574H254.412L257.862 58.3014C257.962 58.6508 258.135 58.9534 258.386 59.2028C258.635 59.4521 258.935 59.5761 259.286 59.5761H267.234C267.634 59.5761 267.956 59.4614 268.208 59.2388C268.458 59.0134 268.583 58.7041 268.583 58.3014C268.583 58.2534 268.571 58.2014 268.547 58.1521C268.519 58.1028 268.51 58.0268 268.51 57.9281ZM432.448 3.87077H425.999C425.051 3.87077 424.575 4.34543 424.575 5.2961V44.7334C424.575 45.1814 424.451 45.4054 424.202 45.4054C423.95 45.4054 423.751 45.2068 423.6 44.8068L406.134 6.27077C405.683 5.26943 405.222 4.6201 404.744 4.32143C404.27 4.0201 403.634 3.87077 402.834 3.87077H394.736C393.887 3.87077 393.172 4.15743 392.599 4.73077C392.024 5.3081 391.735 6.02143 391.735 6.87077V58.0774C391.735 58.4788 391.886 58.8268 392.19 59.1281C392.487 59.4281 392.836 59.5761 393.236 59.5761H399.61C400.008 59.5761 400.347 59.4281 400.622 59.1281C400.894 58.8268 401.034 58.4788 401.034 58.0774V20.3641C401.034 19.9654 401.158 19.7641 401.408 19.7641C401.658 19.7641 401.884 19.9654 402.086 20.3641L418.727 56.8761C419.327 58.2268 420.015 59.0134 420.79 59.2388C421.566 59.4614 422.4 59.5761 423.302 59.5761H430.874C431.723 59.5761 432.436 59.2894 433.007 58.7134C433.583 58.1388 433.872 57.4281 433.872 56.5774V5.2961C433.872 4.34543 433.396 3.87077 432.448 3.87077ZM213.544 43.8308C213.544 45.1321 213.346 46.2694 212.946 47.2428C212.544 48.2174 211.859 49.0188 210.883 49.6441C209.908 50.2681 208.608 50.7441 206.984 51.0668C205.362 51.3921 203.348 51.5548 200.95 51.5548C200.15 51.5548 199.15 51.5308 197.951 51.4788C196.752 51.4321 195.7 51.4028 194.802 51.4028V34.9081H204.324C206.072 34.9081 207.547 35.1334 208.746 35.5841C209.947 36.0334 210.895 36.6241 211.596 37.3468C212.295 38.0708 212.794 38.9108 213.096 39.8588C213.395 40.8081 213.544 41.8068 213.544 42.8588V43.8308ZM194.802 11.9681C195.602 11.9174 196.491 11.8801 197.463 11.8548C198.438 11.8308 199.376 11.8174 200.275 11.8174C202.674 11.8174 204.7 11.9441 206.346 12.1948C207.996 12.4468 209.334 12.8614 210.359 13.4388C211.383 14.0174 212.12 14.7694 212.571 15.6974C213.022 16.6268 213.244 17.7454 213.244 19.0494V20.1028C213.244 21.0601 213.106 21.9761 212.832 22.8548C212.559 23.7334 212.083 24.5014 211.408 25.1521C210.732 25.8054 209.823 26.3201 208.671 26.6974C207.523 27.0748 206.072 27.2614 204.324 27.2614H194.802V11.9681ZM223.742 42.7094C223.742 39.8588 223.104 37.4961 221.83 35.6228C220.556 33.7481 218.767 32.3121 216.47 31.3108C218.767 30.3108 220.49 28.7974 221.642 26.7734C222.79 24.7494 223.366 22.4908 223.366 19.9908V18.4894C223.366 15.6428 222.804 13.2561 221.679 11.3294C220.556 9.4081 218.968 7.84276 216.92 6.64543C214.87 5.44543 212.432 4.58277 209.61 4.05743C206.784 3.53343 203.672 3.26943 200.275 3.26943C197.326 3.26943 194.751 3.35876 192.552 3.53343C190.354 3.70943 188.754 3.87077 187.756 4.0201C186.556 4.22277 185.694 4.6081 185.167 5.1841C184.643 5.75877 184.38 6.71876 184.38 8.06943V55.3028C184.38 56.7028 184.668 57.6668 185.243 58.1894C185.815 58.7134 186.73 59.1028 187.979 59.3508C189.13 59.6001 190.818 59.8014 193.04 59.9508C195.263 60.1028 197.902 60.1761 200.95 60.1761C204.448 60.1761 207.596 59.8868 210.398 59.3148C213.195 58.7414 215.582 57.8161 217.556 56.5401C219.53 55.2668 221.055 53.6054 222.131 51.5548C223.204 49.5068 223.742 46.9801 223.742 43.9814V42.7094Z" fill="white"/>
<path d="M303.568 142.264H301.859C301.687 142.264 301.548 142.328 301.444 142.453C301.339 142.581 301.284 142.729 301.284 142.898V151.969C300.903 152.013 300.385 152.053 299.729 152.096C299.076 152.137 298.261 152.16 297.287 152.16C296.547 152.16 295.855 152.027 295.211 151.764C294.565 151.501 294 151.072 293.513 150.482C293.025 149.89 292.644 149.137 292.369 148.219C292.095 147.299 291.957 146.185 291.957 144.877V140.635C291.957 139.197 292.112 138.016 292.419 137.088C292.724 136.16 293.139 135.413 293.655 134.853C294.175 134.296 294.771 133.905 295.448 133.683C296.124 133.461 296.835 133.349 297.573 133.349C298.251 133.349 298.857 133.356 299.397 133.365C299.936 133.379 300.44 133.388 300.903 133.398C301.369 133.406 301.819 133.429 302.252 133.461C302.685 133.493 303.135 133.529 303.601 133.573H303.727C304.001 133.573 304.14 133.465 304.14 133.255V131.671C304.14 131.501 304.087 131.384 303.98 131.32C303.876 131.256 303.747 131.216 303.601 131.193C302.985 131.089 302.196 130.988 301.236 130.893C300.275 130.799 299.053 130.749 297.573 130.749C296.557 130.749 295.543 130.903 294.527 131.211C293.513 131.515 292.604 132.049 291.8 132.812C290.999 133.573 290.34 134.587 289.833 135.856C289.325 137.125 289.073 138.72 289.073 140.644V144.896C289.073 146.716 289.316 148.253 289.803 149.513C290.288 150.769 290.919 151.787 291.687 152.557C292.463 153.328 293.34 153.888 294.324 154.237C295.305 154.587 296.293 154.76 297.287 154.76C298.788 154.76 300.021 154.713 300.983 154.617C301.947 154.521 302.816 154.408 303.601 154.279C303.98 154.215 304.171 153.98 304.171 153.575V142.898C304.171 142.729 304.112 142.581 303.996 142.453C303.88 142.328 303.737 142.264 303.568 142.264ZM282.856 144.803C282.856 146.133 282.724 147.264 282.461 148.196C282.199 149.125 281.825 149.887 281.343 150.479C280.859 151.071 280.271 151.499 279.576 151.761C278.883 152.027 278.101 152.16 277.243 152.16C276.379 152.16 275.599 152.027 274.907 151.761C274.213 151.499 273.619 151.071 273.127 150.479C272.631 149.887 272.252 149.125 271.991 148.196C271.727 147.264 271.593 146.133 271.593 144.803V140.711C271.593 139.377 271.727 138.246 271.991 137.314C272.252 136.386 272.631 135.623 273.127 135.032C273.619 134.44 274.213 134.012 274.907 133.747C275.599 133.484 276.379 133.349 277.243 133.349C278.101 133.349 278.883 133.484 279.576 133.747C280.271 134.012 280.859 134.44 281.343 135.032C281.825 135.623 282.199 136.386 282.461 137.314C282.724 138.246 282.856 139.377 282.856 140.711V144.803ZM283.397 133.097C282.635 132.292 281.731 131.703 280.685 131.32C279.637 130.939 278.488 130.749 277.243 130.749C275.993 130.749 274.847 130.939 273.801 131.32C272.756 131.703 271.851 132.292 271.088 133.097C270.327 133.9 269.731 134.932 269.293 136.188C268.861 137.449 268.645 138.955 268.645 140.711V144.803C268.645 146.557 268.861 148.061 269.293 149.32C269.731 150.581 270.327 151.611 271.088 152.413C271.851 153.219 272.756 153.808 273.801 154.191C274.847 154.572 275.993 154.76 277.243 154.76C278.488 154.76 279.637 154.572 280.685 154.191C281.731 153.808 282.635 153.219 283.397 152.413C284.157 151.611 284.748 150.581 285.172 149.32C285.593 148.061 285.805 146.557 285.805 144.803V140.711C285.805 138.955 285.593 137.449 285.172 136.188C284.748 134.932 284.157 133.9 283.397 133.097ZM322.281 144.803C322.281 146.133 322.152 147.264 321.889 148.196C321.624 149.125 321.252 149.887 320.768 150.479C320.288 151.071 319.696 151.499 319.003 151.761C318.308 152.027 317.531 152.16 316.668 152.16C315.805 152.16 315.028 152.027 314.336 151.761C313.639 151.499 313.044 151.071 312.552 150.479C312.057 149.887 311.679 149.125 311.415 148.196C311.153 147.264 311.023 146.133 311.023 144.803V140.711C311.023 139.377 311.153 138.246 311.415 137.314C311.679 136.386 312.057 135.623 312.552 135.032C313.044 134.44 313.639 134.012 314.336 133.747C315.028 133.484 315.805 133.349 316.668 133.349C317.531 133.349 318.308 133.484 319.003 133.747C319.696 134.012 320.288 134.44 320.768 135.032C321.252 135.623 321.624 136.386 321.889 137.314C322.152 138.246 322.281 139.377 322.281 140.711V144.803ZM322.821 133.097C322.061 132.292 321.156 131.703 320.109 131.32C319.063 130.939 317.915 130.749 316.668 130.749C315.42 130.749 314.273 130.939 313.225 131.32C312.18 131.703 311.276 132.292 310.513 133.097C309.755 133.9 309.156 134.932 308.721 136.188C308.291 137.449 308.072 138.955 308.072 140.711V144.803C308.072 146.557 308.291 148.061 308.721 149.32C309.156 150.581 309.755 151.611 310.513 152.413C311.276 153.219 312.18 153.808 313.225 154.191C314.273 154.572 315.42 154.76 316.668 154.76C317.915 154.76 319.063 154.572 320.109 154.191C321.156 153.808 322.061 153.219 322.821 152.413C323.584 151.611 324.173 150.581 324.597 149.32C325.02 148.061 325.232 146.557 325.232 144.803V140.711C325.232 138.955 325.02 137.449 324.597 136.188C324.173 134.932 323.584 133.9 322.821 133.097ZM342.296 144.884C342.296 146.303 342.127 147.487 341.789 148.441C341.453 149.395 340.984 150.157 340.383 150.73C339.784 151.302 339.071 151.705 338.249 151.937C337.427 152.169 336.541 152.286 335.593 152.286H333.665C333.117 152.286 332.591 152.267 332.083 152.223V133.285C332.612 133.244 333.143 133.218 333.68 133.206C334.217 133.198 334.856 133.192 335.593 133.192C336.541 133.192 337.427 133.308 338.249 133.54C339.071 133.773 339.784 134.173 340.383 134.733C340.984 135.295 341.453 136.052 341.789 137.007C342.127 137.959 342.296 139.153 342.296 140.594V144.884ZM342.567 133.113C341.729 132.297 340.721 131.703 339.539 131.32C338.353 130.939 337.033 130.749 335.573 130.749C334.981 130.749 334.388 130.759 333.797 130.781C333.205 130.801 332.651 130.829 332.131 130.861C331.615 130.893 331.153 130.925 330.748 130.956C330.349 130.988 330.032 131.025 329.801 131.066C329.355 131.13 329.135 131.396 329.135 131.859V153.65C329.135 154.117 329.355 154.378 329.801 154.444C330.032 154.486 330.349 154.521 330.748 154.555C331.153 154.587 331.615 154.618 332.131 154.65C332.651 154.684 333.205 154.708 333.797 154.728C334.388 154.749 334.981 154.76 335.573 154.76C337.033 154.76 338.353 154.566 339.539 154.174C340.721 153.781 341.729 153.181 342.567 152.367C343.401 151.553 344.047 150.525 344.501 149.289C344.955 148.052 345.183 146.589 345.183 144.896V140.613C345.183 138.9 344.955 137.425 344.501 136.188C344.047 134.952 343.401 133.927 342.567 133.113ZM383.12 153.84L373.572 142.421L383.12 131.637C383.205 131.553 383.248 131.447 383.248 131.32C383.248 131.089 383.099 130.972 382.801 130.972H380.519C380.348 130.972 380.229 130.993 380.153 131.035C380.081 131.076 379.989 131.152 379.885 131.256L370.749 141.82V131.573C370.749 131.405 370.692 131.261 370.576 131.146C370.459 131.029 370.316 130.972 370.148 130.972H368.465C368.296 130.972 368.156 131.029 368.037 131.146C367.92 131.261 367.864 131.405 367.864 131.573V153.905C367.864 154.073 367.916 154.223 368.023 154.348C368.127 154.476 368.265 154.54 368.435 154.54H370.177C370.347 154.54 370.485 154.476 370.591 154.348C370.696 154.223 370.749 154.073 370.749 153.905V143.341L379.693 154.223C379.885 154.435 380.116 154.54 380.393 154.54H382.865C383.14 154.54 383.279 154.435 383.279 154.223C383.279 154.073 383.225 153.947 383.12 153.84ZM352.32 144.261L355.207 133.827C355.315 133.447 355.525 133.255 355.841 133.255C356.139 133.255 356.34 133.447 356.444 133.827L359.329 144.261H352.32ZM359.044 133.129C358.919 132.642 358.732 132.245 358.492 131.937C358.244 131.632 357.975 131.389 357.683 131.211C357.385 131.029 357.077 130.908 356.761 130.845C356.444 130.781 356.139 130.749 355.841 130.749C355.545 130.749 355.235 130.785 354.905 130.861C354.577 130.935 354.267 131.061 353.971 131.241C353.673 131.421 353.403 131.664 353.161 131.969C352.917 132.279 352.733 132.673 352.605 133.16L346.739 153.808C346.717 153.852 346.708 153.925 346.708 154.031C346.708 154.369 346.887 154.54 347.247 154.54H349.117C349.243 154.54 349.359 154.492 349.467 154.396C349.571 154.3 349.645 154.191 349.688 154.062L351.719 146.767H359.933L361.996 154.062C362.039 154.191 362.1 154.3 362.184 154.396C362.269 154.492 362.388 154.54 362.533 154.54H364.408C364.765 154.54 364.944 154.369 364.944 154.031C364.944 153.925 364.933 153.852 364.915 153.808L359.044 133.129ZM238.488 130.972H236.825C236.656 130.972 236.52 131.029 236.416 131.146C236.315 131.261 236.26 131.405 236.26 131.573V150.129C236.26 150.193 236.248 150.225 236.228 150.225L236.167 150.129L226.399 131.607C226.271 131.373 226.136 131.211 225.987 131.115C225.836 131.019 225.539 130.972 225.095 130.972H223.352C223.096 130.972 222.881 131.056 222.7 131.224C222.519 131.396 222.432 131.607 222.432 131.859V154.16C222.432 154.328 222.483 154.435 222.589 154.476C222.696 154.519 222.832 154.54 223.001 154.54H224.652C224.82 154.54 224.96 154.481 225.064 154.364C225.171 154.249 225.221 154.105 225.221 153.937V135.413C225.221 135.349 225.233 135.316 225.253 135.316C225.295 135.316 225.328 135.349 225.349 135.413L235.18 154.031C235.351 154.369 235.687 154.54 236.197 154.54H238.141C238.393 154.54 238.608 154.449 238.787 154.268C238.964 154.088 239.051 153.871 239.051 153.62V131.573C239.051 131.405 238.999 131.261 238.895 131.146C238.789 131.029 238.655 130.972 238.488 130.972ZM217.445 130.972H215.713C215.541 130.972 215.399 131.029 215.28 131.146C215.164 131.261 215.105 131.405 215.105 131.573V145.999C215.105 147.033 215.019 147.946 214.853 148.73C214.684 149.513 214.395 150.168 213.983 150.699C213.575 151.228 213.044 151.629 212.393 151.905C211.741 152.182 210.92 152.317 209.933 152.317C208.968 152.317 208.153 152.182 207.489 151.905C206.828 151.629 206.293 151.228 205.883 150.699C205.472 150.168 205.184 149.505 205.017 148.713C204.848 147.921 204.765 147.015 204.765 145.999V131.573C204.765 131.405 204.703 131.261 204.587 131.146C204.469 131.029 204.325 130.972 204.156 130.972H202.423C202.251 130.972 202.108 131.029 201.988 131.146C201.872 131.261 201.815 131.405 201.815 131.573V145.973C201.815 148.999 202.527 151.221 203.953 152.636C205.381 154.052 207.376 154.76 209.933 154.76C212.513 154.76 214.512 154.052 215.929 152.636C217.347 151.221 218.055 148.999 218.055 145.973V131.573C218.055 131.405 217.995 131.261 217.879 131.146C217.759 131.029 217.617 130.972 217.445 130.972ZM262.905 138.028C262.905 139.673 262.449 140.863 261.54 141.6C260.631 142.337 259.085 142.708 256.909 142.708C256.699 142.708 256.449 142.703 256.164 142.693C255.879 142.68 255.587 142.671 255.292 142.661C254.995 142.649 254.709 142.632 254.433 142.613C254.16 142.593 253.929 142.581 253.737 142.581V133.317C254.117 133.276 254.619 133.244 255.244 133.225C255.867 133.203 256.421 133.192 256.909 133.192C258.96 133.192 260.472 133.529 261.445 134.202C262.419 134.878 262.905 136.016 262.905 137.618V138.028ZM263.268 132.288C262.477 131.747 261.54 131.357 260.461 131.115C259.383 130.872 258.197 130.749 256.909 130.749C255.979 130.749 255.036 130.769 254.087 130.813C253.133 130.856 252.321 130.919 251.645 131.003C251.137 131.067 250.883 131.332 250.883 131.795V153.905C250.883 154.073 250.935 154.223 251.041 154.348C251.147 154.476 251.285 154.54 251.453 154.54H253.167C253.336 154.54 253.472 154.476 253.579 154.348C253.685 154.223 253.737 154.073 253.737 153.905V144.991C254.16 145.035 254.668 145.07 255.26 145.101C255.851 145.133 256.401 145.149 256.909 145.149C258.197 145.149 259.383 145.029 260.461 144.785C261.54 144.543 262.477 144.14 263.268 143.579C264.063 143.02 264.679 142.291 265.123 141.391C265.568 140.493 265.792 139.377 265.792 138.044V137.632C265.792 136.363 265.568 135.291 265.123 134.412C264.679 133.535 264.063 132.828 263.268 132.288ZM195.596 138.028C195.596 139.673 195.143 140.863 194.233 141.6C193.324 142.337 191.78 142.708 189.6 142.708C189.391 142.708 189.141 142.703 188.856 142.693C188.573 142.68 188.281 142.671 187.985 142.661C187.688 142.649 187.401 142.632 187.128 142.613C186.855 142.593 186.623 142.581 186.431 142.581V133.317C186.812 133.276 187.312 133.244 187.936 133.225C188.561 133.203 189.115 133.192 189.6 133.192C191.652 133.192 193.165 133.529 194.139 134.202C195.111 134.878 195.596 136.016 195.596 137.618V138.028ZM195.961 132.288C195.169 131.747 194.233 131.357 193.155 131.115C192.075 130.872 190.892 130.749 189.6 130.749C188.672 130.749 187.731 130.769 186.78 130.813C185.828 130.856 185.015 130.919 184.336 131.003C183.829 131.067 183.577 131.332 183.577 131.795V153.905C183.577 154.073 183.629 154.223 183.736 154.348C183.841 154.476 183.979 154.54 184.145 154.54H185.861C186.027 154.54 186.165 154.476 186.271 154.348C186.377 154.223 186.431 154.073 186.431 153.905V144.991C186.855 145.035 187.359 145.07 187.952 145.101C188.545 145.133 189.096 145.149 189.6 145.149C190.892 145.149 192.075 145.029 193.155 144.785C194.233 144.543 195.169 144.14 195.961 143.579C196.755 143.02 197.373 142.291 197.819 141.391C198.261 140.493 198.487 139.377 198.487 138.044V137.632C198.487 136.363 198.261 135.291 197.819 134.412C197.373 133.535 196.755 132.828 195.961 132.288Z" fill="white"/>
<path d="M237.472 67.608C235.367 68.0093 233.533 68.7707 231.975 69.896C230.409 71.0213 229.179 72.5867 228.273 74.5813C227.365 76.584 226.911 79.1826 226.911 82.38V108.547C226.911 111.744 227.365 114.343 228.273 116.344C229.179 118.343 230.409 119.908 231.975 121.031C233.533 122.153 235.367 122.916 237.472 123.317C239.579 123.713 241.853 123.916 244.308 123.916C246.556 123.916 248.441 123.877 249.967 123.801C251.492 123.732 252.791 123.644 253.867 123.543C254.944 123.441 255.841 123.328 256.564 123.203C257.289 123.079 257.951 122.967 258.551 122.868C259.1 122.768 259.488 122.617 259.713 122.417C259.939 122.221 260.052 121.845 260.052 121.292V116.495C260.052 116.095 259.899 115.745 259.599 115.447C259.301 115.145 258.951 114.996 258.551 114.996H243.255C241.056 114.996 239.519 114.547 238.645 113.643C237.771 112.748 237.336 111.045 237.336 108.547V98.876H257.651C258.051 98.876 258.4 98.7227 258.701 98.4253C259.003 98.124 259.149 97.7733 259.149 97.3733V91.9773C259.149 91.5787 259.003 91.2267 258.701 90.928C258.4 90.628 258.051 90.4787 257.651 90.4787H237.336V82.38C237.336 79.8813 237.771 78.1827 238.645 77.28C239.519 76.3827 241.056 75.9307 243.255 75.9307H258.551C258.951 75.9307 259.301 75.784 259.599 75.4853C259.899 75.18 260.052 74.8307 260.052 74.4347V69.6347C260.052 69.0853 259.939 68.7093 259.713 68.508C259.488 68.312 259.1 68.1587 258.551 68.0587C257.951 67.96 257.289 67.848 256.564 67.724C255.841 67.5973 254.944 67.4853 253.867 67.3867C252.791 67.2867 251.492 67.1973 249.967 67.12C248.441 67.048 246.556 67.0093 244.308 67.0093C241.853 67.0093 239.579 67.2107 237.472 67.608ZM192.553 67.2707C190.352 67.4467 188.753 67.608 187.755 67.7627C186.556 67.96 185.692 68.3466 185.168 68.92C184.645 69.4973 184.381 70.4613 184.381 71.8093V119.043C184.381 120.444 184.669 121.407 185.243 121.929C185.816 122.452 186.729 122.84 187.977 123.091C189.129 123.34 190.815 123.543 193.041 123.695C195.263 123.84 197.904 123.916 200.949 123.916C204.448 123.916 207.597 123.628 210.397 123.056C213.195 122.48 215.583 121.552 217.556 120.281C219.532 119.004 221.055 117.344 222.128 115.296C223.203 113.247 223.743 110.723 223.743 107.721V106.448C223.743 103.6 223.104 101.236 221.831 99.36C220.557 97.484 218.767 96.0506 216.471 95.052C218.767 94.052 220.492 92.5387 221.644 90.5133C222.792 88.4907 223.368 86.2307 223.368 83.7293V82.2307C223.368 79.3813 222.807 76.9947 221.681 75.0707C220.557 73.148 218.968 71.584 216.919 70.384C214.871 69.1813 212.432 68.3253 209.609 67.7987C206.785 67.2707 203.675 67.0093 200.273 67.0093C197.327 67.0093 194.753 67.0987 192.553 67.2707ZM194.803 75.708C195.603 75.6587 196.489 75.62 197.464 75.596C198.44 75.5693 199.375 75.5573 200.273 75.5573C202.676 75.5573 204.699 75.684 206.349 75.9347C207.999 76.1853 209.335 76.5987 210.36 77.176C211.383 77.756 212.123 78.5093 212.569 79.436C213.021 80.3693 213.245 81.484 213.245 82.7906V83.844C213.245 84.7973 213.108 85.716 212.835 86.596C212.559 87.4773 212.085 88.24 211.412 88.8947C210.735 89.5467 209.82 90.06 208.675 90.436C207.521 90.816 206.072 91.0013 204.324 91.0013H194.803V75.708ZM197.953 115.219C196.752 115.169 195.703 115.145 194.803 115.145V98.6507H204.324C206.072 98.6507 207.547 98.876 208.748 99.3253C209.945 99.776 210.896 100.364 211.597 101.087C212.297 101.808 212.796 102.648 213.097 103.6C213.396 104.549 213.548 105.544 213.548 106.597V107.573C213.548 108.875 213.347 110.008 212.947 110.983C212.547 111.96 211.859 112.759 210.885 113.381C209.911 114.008 208.611 114.48 206.985 114.807C205.361 115.133 203.351 115.296 200.949 115.296C200.151 115.296 199.153 115.269 197.953 115.219ZM264.375 67.608C263.972 67.608 263.624 67.748 263.321 68.02C263.021 68.2973 262.872 68.636 262.872 69.0346V74.9573C262.872 75.3586 263.021 75.684 263.321 75.9307C263.624 76.1853 263.972 76.3067 264.375 76.3067H277.495V121.813C277.495 122.221 277.644 122.567 277.943 122.868C278.243 123.168 278.589 123.317 278.992 123.317H286.416C286.813 123.317 287.165 123.168 287.463 122.868C287.764 122.567 287.912 122.221 287.912 121.813V76.3067H301.035C301.436 76.3067 301.784 76.1853 302.083 75.9307C302.383 75.684 302.533 75.3586 302.533 74.9573V69.0346C302.533 68.636 302.383 68.2973 302.083 68.02C301.784 67.748 301.436 67.608 301.035 67.608H264.375Z" fill="url(#paint1_linear_313_77)"/>
<path d="M159.342 14.6682H161.836C163.03 14.6682 163.842 14.4909 164.276 14.1349C164.71 13.7789 164.927 13.3082 164.927 12.7229C164.927 12.3456 164.823 12.0082 164.614 11.7109C164.404 11.4122 164.114 11.1909 163.743 11.0442C163.371 10.8976 162.684 10.8242 161.68 10.8242H159.342V14.6682ZM157.286 21.8389V9.09757H161.663C163.159 9.09757 164.243 9.21624 164.912 9.4509C165.582 9.6869 166.115 10.0976 166.512 10.6829C166.91 11.2682 167.108 11.8909 167.108 12.5496C167.108 13.4816 166.776 14.2922 166.112 14.9816C165.447 15.6722 164.567 16.0589 163.468 16.1429C163.919 16.3322 164.279 16.5562 164.551 16.8176C165.063 17.3202 165.691 18.1616 166.434 19.3442L167.987 21.8389H165.478L164.347 19.8309C163.458 18.2509 162.742 17.2629 162.198 16.8642C161.82 16.5722 161.271 16.4256 160.55 16.4256H159.342V21.8389H157.286ZM162.48 5.41091C160.816 5.41091 159.199 5.83757 157.624 6.68957C156.048 7.5429 154.816 8.76024 153.928 10.3456C153.039 11.9296 152.594 13.5802 152.594 15.2962C152.594 17.0016 153.032 18.6362 153.906 20.1989C154.778 21.7629 155.999 22.9816 157.568 23.8549C159.138 24.7282 160.775 25.1656 162.48 25.1656C164.184 25.1656 165.822 24.7282 167.391 23.8549C168.96 22.9816 170.179 21.7629 171.047 20.1989C171.915 18.6362 172.35 17.0016 172.35 15.2962C172.35 13.5802 171.907 11.9296 171.023 10.3456C170.14 8.76024 168.908 7.5429 167.328 6.68957C165.75 5.83757 164.132 5.41091 162.48 5.41091ZM162.48 3.44957C164.467 3.44957 166.408 3.9589 168.302 4.9789C170.195 5.9989 171.668 7.4589 172.726 9.35757C173.782 11.2549 174.311 13.2349 174.311 15.2962C174.311 17.3349 173.79 19.2976 172.75 21.1802C171.708 23.0629 170.25 24.5242 168.371 25.5656C166.494 26.6069 164.531 27.1269 162.48 27.1269C160.428 27.1269 158.466 26.6069 156.588 25.5656C154.71 24.5242 153.248 23.0629 152.203 21.1802C151.156 19.2976 150.634 17.3349 150.634 15.2962C150.634 13.2349 151.164 11.2549 152.226 9.35757C153.288 7.4589 154.764 5.9989 156.658 4.9789C158.551 3.9589 160.492 3.44957 162.48 3.44957Z" fill="white"/>
<defs>
<radialGradient id="paint0_radial_313_77" cx="0" cy="0" r="1" gradientUnits="userSpaceOnUse" gradientTransform="translate(58.2688 36.7026) rotate(71.9728) scale(117.678 116.136)">
<stop stop-color="#FFF75C"/>
<stop offset="0.32" stop-color="#FBC707"/>
<stop offset="0.531908" stop-color="#FBC707"/>
<stop offset="0.85" stop-color="#F89C0E"/>
<stop offset="1" stop-color="#FAB20B"/>
</radialGradient>
<linearGradient id="paint1_linear_313_77" x1="183.26" y1="59.6964" x2="279.486" y2="115.925" gradientUnits="userSpaceOnUse">
<stop stop-color="#FFF540"/>
<stop offset="0.25" stop-color="#FBC707"/>
<stop offset="0.5" stop-color="#FBC707"/>
<stop offset="1" stop-color="#F89C0E"/>
</linearGradient>
</defs>
</svg>
